<?xml version="1.0" standalone="no"?><!DOCTYPE svg PUBLIC "-//W3C//DTD SVG 1.1//EN" "http://www.w3.org/Graphics/SVG/1.1/DTD/svg11.dtd"><svg t="1653013770824" class="icon" viewBox="0 0 1024 1024" version="1.1" xmlns="http://www.w3.org/2000/svg" p-id="888" xmlns:xlink="http://www.w3.org/1999/xlink" width="200" height="200"><defs><style type="text/css"></style></defs><path d="M51.20067969 282.62292125l421.860315 203.73063656c10.98748406 5.226555 25.7062125 7.99967532 40.15962844 7.99967624 14.50685344 0 29.17308188-2.77312125 40.15962844-7.99967624l421.86125249-203.73063656c22.23934219-10.71935907 22.23934219-28.21308375 0-38.93244281L553.43275156 40.01327844A96.90548249 96.90548249 0 0 0 513.22156063 32.01360313c-14.39997844 0-29.17308188 2.71874625-40.10619094 7.99967531L51.20067969 243.74391593c-22.18684219 10.66592156-22.18684219 28.15964625 0 38.87900532z" p-id="889"></path><path d="M975.29400405 491.31386375l-87.30455811-42.13306312c-10.18686-5.0137425-12.95998125-4.74655595-23.68027782 0.21374906-10.66592156 5.012805-311.19516656 150.13102875-311.19516656 150.13102875-11.20029563 5.226555-25.6537125 7.99967532-40.10619094 7.99967625s-29.17308188-2.77312125-40.15962749-7.99967625c0 0-292.47613125-141.11791687-306.18236157-147.83790656-14.93341594-7.25342719-19.19997188-7.25342719-32.69338874-0.74718657l-83.2517522 40.10619094c-22.18684219 10.72029655-22.18684219 28.21308375 0 38.93338032L472.58099562 733.70975563c10.98748406 5.2274925 25.7062125 7.94717531 40.15962843 7.94717625s29.17308188-2.71968375 40.15962845-7.99967625l421.8612525-203.73063657c22.71934125-10.45310999 22.71934125-27.89339625 0.53249905-38.61275531z" p-id="890"></path><path d="M975.29400405 738.93724812l-87.30455811-42.13306311c-10.18686-5.0137425-12.95998125-4.7999925-23.68027782 0.21281249C853.64324656 702.0316775 553.38118906 847.41521281 553.38118906 847.41521281c-11.20029563 5.1731175-25.65277499 7.94623875-40.15962843 7.94623875-14.39997844 0-29.17308188-2.77312125-40.10619094-7.99967531 0 0-292.52863125-141.11791687-306.23579813-147.8379075-14.93247844-7.25342719-19.19997188-7.25342719-32.63901469-0.74624906l-83.30612718 40.15962843c-22.18590469 10.66592156-22.18590469 28.15870875 0 38.87900532l421.91469093 203.73063657c10.98654656 5.44030406 25.7062125 7.99967532 40.15962751 7.99967624 14.39997844 0 29.17214437-2.77312125 40.10619093-7.99967626l421.91375344-203.73063655c22.39965469-10.72029655 22.39965469-28.15964625 0.26624906-38.93244282z" p-id="891"></path></svg>