<?xml version="1.0" standalone="no"?><!DOCTYPE svg PUBLIC "-//W3C//DTD SVG 1.1//EN" "http://www.w3.org/Graphics/SVG/1.1/DTD/svg11.dtd"><svg t="1653013542790" class="icon" viewBox="0 0 1024 1024" version="1.1" xmlns="http://www.w3.org/2000/svg" p-id="12520" xmlns:xlink="http://www.w3.org/1999/xlink" width="200" height="200"><defs><style type="text/css"></style></defs><path d="M636.260188 475.56798a41.636595 41.636595 0 1 1 0 83.273189H553.637571V650.571792a41.636595 41.636595 0 0 1-83.27319 0V558.841169H387.091192a41.636595 41.636595 0 0 1 0-83.273189h83.273189v-39.034308H387.091192a41.636595 41.636595 0 0 1 0-82.622617H446.943797l-65.057179-65.05718a41.831766 41.831766 0 0 1 59.202033-59.202033L512.000976 300.564168 584.214445 227.700127a42.287166 42.287166 0 0 1 58.551461 0 42.287166 42.287166 0 0 1 0 59.202033l-65.057179 65.057179h60.503176a41.636595 41.636595 0 1 1 0 82.622618h-84.574332v39.034307zM837.286872 0H186.71508a130.114358 130.114358 0 0 0-130.114358 130.114358v837.936468a30.576874 30.576874 0 0 0 52.045743 22.119441l99.537484-95.634054a30.576874 30.576874 0 0 1 42.937738 0l56.599746 117.102923a43.58831 43.58831 0 0 0 60.503177 0l121.656925-117.102923a30.576874 30.576874 0 0 1 42.937738 0l121.006353 117.102923a44.238882 44.238882 0 0 0 61.153749 0l57.900889-117.102923a30.576874 30.576874 0 0 1 42.937739 0l98.886912 95.634054a31.227446 31.227446 0 0 0 52.696315-22.119441V130.114358a130.114358 130.114358 0 0 0-130.114358-130.114358z" p-id="12521"></path></svg>