<?xml version="1.0" standalone="no"?><!DOCTYPE svg PUBLIC "-//W3C//DTD SVG 1.1//EN" "http://www.w3.org/Graphics/SVG/1.1/DTD/svg11.dtd"><svg t="1653013539588" class="icon" viewBox="0 0 1024 1024" version="1.1" xmlns="http://www.w3.org/2000/svg" p-id="12381" xmlns:xlink="http://www.w3.org/1999/xlink" width="200" height="200"><defs><style type="text/css"></style></defs><path d="M416.011999 48.057993 128.047994 48.057993c-35.323585 0-63.992001 28.668416-63.992001 63.992001l0 287.964004c0 35.323585 28.668416 63.992001 63.992001 63.992001l287.964004 0c35.323585 0 63.992001-28.668416 63.992001-63.992001l0-287.964004C480.004 76.726409 451.335583 48.057993 416.011999 48.057993zM895.952006 48.057993l-287.964004 0c-35.323585 0-63.992001 28.668416-63.992001 63.992001l0 287.964004c0 35.323585 28.668416 63.992001 63.992001 63.992001L895.952006 464.005999c35.323585 0 63.992001-28.668416 63.992001-63.992001l0-287.964004C959.944007 76.726409 931.275591 48.057993 895.952006 48.057993zM416.011999 527.998 128.047994 527.998c-35.323585 0-63.992001 28.668416-63.992001 63.992001l0 319.960005c0 35.323585 28.668416 63.992001 63.992001 63.992001l287.964004 0c35.323585 0 63.992001-28.668416 63.992001-63.992001l0-319.960005C480.004 556.666417 451.335583 527.998 416.011999 527.998zM895.952006 527.998l-287.964004 0c-35.323585 0-63.992001 28.668416-63.992001 63.992001l0 319.960005c0 35.323585 28.668416 63.992001 63.992001 63.992001L895.952006 975.942007c35.323585 0 63.992001-28.668416 63.992001-63.992001l0-319.960005C959.944007 556.666417 931.275591 527.998 895.952006 527.998z" p-id="12382"></path></svg>