<?xml version="1.0" standalone="no"?><!DOCTYPE svg PUBLIC "-//W3C//DTD SVG 1.1//EN" "http://www.w3.org/Graphics/SVG/1.1/DTD/svg11.dtd"><svg t="1653013780199" class="icon" viewBox="0 0 1024 1024" version="1.1" xmlns="http://www.w3.org/2000/svg" p-id="888" xmlns:xlink="http://www.w3.org/1999/xlink" width="200" height="200"><defs><style type="text/css"></style></defs><path d="M405.359375 592.034375V432.078125A106.66875 106.66875 0 0 1 512 325.4375h373.359375V138.640625A106.66875 106.66875 0 0 0 778.71875 32H138.640625A106.66875 106.66875 0 0 0 32 138.640625v746.71875A106.66875 106.66875 0 0 0 138.640625 992h639.95625a106.66875 106.66875 0 0 0 106.6125-106.640625V698.675H512a106.66875 106.66875 0 0 1-106.640625-106.640625z m533.2875-213.39375H512a53.26875 53.26875 0 0 0-53.353125 53.325v159.95625a53.26875 53.26875 0 0 0 53.325 53.325h426.675a53.26875 53.26875 0 0 0 53.325-53.325v-159.84375a53.3625 53.3625 0 0 0-53.325-53.4375zM592.034375 565.325A53.325 53.325 0 1 1 645.359375 512a53.259375 53.259375 0 0 1-53.325 53.325z" p-id="889"></path></svg>