<?xml version="1.0" standalone="no"?><!DOCTYPE svg PUBLIC "-//W3C//DTD SVG 1.1//EN" "http://www.w3.org/Graphics/SVG/1.1/DTD/svg11.dtd"><svg t="1653013762294" class="icon" viewBox="0 0 1024 1024" version="1.1" xmlns="http://www.w3.org/2000/svg" p-id="916" xmlns:xlink="http://www.w3.org/1999/xlink" width="200" height="200"><defs><style type="text/css"></style></defs><path d="M501.8624 33.21173333c134.28053333 0 243.13173333 107.07626667 243.13173333 239.13813334 0 132.096-108.8512 239.17226667-243.13173333 239.17226666-134.28053333 0-243.13173333-107.07626667-243.13173333-239.17226666C258.73066667 140.25386667 367.616 33.21173333 501.8624 33.21173333L501.8624 33.21173333zM501.8624 33.21173333c134.28053333 0 243.13173333 107.07626667 243.13173333 239.13813334 0 132.096-108.8512 239.17226667-243.13173333 239.17226666-134.28053333 0-243.13173333-107.07626667-243.13173333-239.17226666C258.73066667 140.25386667 367.616 33.21173333 501.8624 33.21173333L501.8624 33.21173333zM410.69226667 591.2576l202.6496 0c173.4656 0 314.0608 138.27413333 314.0608 308.90666667l0 19.89973333c0 67.24266667-140.62933333 69.80266667-314.0608 69.80266667l-202.6496 0c-173.4656 0-314.0608-0.1024-314.0608-69.80266667l0-19.89973333C96.63146667 729.53173333 237.22666667 591.2576 410.69226667 591.2576L410.69226667 591.2576zM410.69226667 591.2576" p-id="917"></path></svg>